
<svg width="21" height="25" viewBox="0 0 21 25" fill="none" xmlns="http://www.w3.org/2000/svg">
<path d="M15.2205 6.10352e-05H15.395C15.535 1.73011 14.8747 3.02279 14.0721 3.95891C13.2847 4.88857 12.2063 5.79022 10.4623 5.65341C10.346 3.94814 11.0074 2.75133 11.8088 1.81736C12.5521 0.946953 13.9148 0.172419 15.2205 6.10352e-05ZM20.5 18.0072V18.0556C20.0099 19.5401 19.3107 20.8123 18.4576 21.993C17.6787 23.0648 16.7243 24.5072 15.0201 24.5072C13.5475 24.5072 12.5694 23.5603 11.0602 23.5345C9.4637 23.5086 8.58575 24.3263 7.12609 24.532H6.62841C5.55656 24.3769 4.69153 23.528 4.06135 22.7632C2.20311 20.5031 0.767155 17.5838 0.5 13.848V12.7502C0.61311 10.0765 1.91226 7.90268 3.63907 6.84914C4.55041 6.28898 5.80324 5.81176 7.19827 6.02505C7.79613 6.1177 8.40693 6.32237 8.94231 6.52489C9.44969 6.71987 10.0842 7.06566 10.6853 7.04735C11.0925 7.0355 11.4975 6.82329 11.908 6.67355C13.1101 6.23942 14.2886 5.74174 15.842 5.9755C17.7089 6.25774 19.0339 7.08721 19.8526 8.36697C18.2733 9.37203 17.0248 10.8866 17.2381 13.4731C17.4277 15.8225 18.7937 17.1971 20.5 18.0072Z" fill="black"/>
</svg>
