<svg width="76" height="54" viewBox="0 0 56 34" fill="none" xmlns="http://www.w3.org/2000/svg">
<path d="M27.7557 5.61749C29.0871 4.33829 30.5544 3.25294 32.2387 2.47984C35.3462 1.05438 38.5628 0.532014 41.9674 1.14028C44.4666 1.58602 46.7371 2.51002 48.7767 3.99701C51.5231 5.99707 53.4582 8.60308 54.5842 11.822C55.3572 14.0263 55.6509 16.2864 55.4269 18.5964C54.9858 23.1398 52.9997 26.8788 49.4615 29.7912C47.7668 31.1853 45.8584 32.1627 43.769 32.7779C41.7317 33.3758 39.6516 33.5534 37.5273 33.3282C33.7187 32.9265 30.4987 31.3153 27.7394 28.7082C27.6524 28.606 27.5723 28.4969 27.4771 28.4017C23.8589 24.7847 20.243 21.1641 16.6155 17.5575C16.309 17.2522 16.2788 17.0851 16.6131 16.7589C18.3091 15.1012 19.9864 13.4239 21.6394 11.7245C21.9737 11.3809 22.149 11.4877 22.4079 11.7512C23.8264 13.1882 25.2472 14.6242 26.6761 16.0519C28.8329 18.2076 31.0059 20.3458 33.1465 22.5176C33.4587 22.8345 33.5934 22.7916 33.8685 22.513C35.5354 20.8263 37.2151 19.1513 38.9052 17.4867C39.1745 17.222 39.1513 17.0827 38.8901 16.825C36.3561 14.3107 33.8302 11.7872 31.3159 9.25196C30.1226 8.04821 28.8666 6.90482 27.7545 5.61981L27.7557 5.61749Z" fill="#FFCC28"/>
<path d="M27.7555 5.61753C28.8676 6.90138 30.1236 8.04477 31.3169 9.24968C33.8312 11.7849 36.3559 14.3085 38.8911 16.8228C39.1511 17.0816 39.1755 17.2197 38.9062 17.4844C37.2161 19.149 35.5375 20.824 33.8695 22.5107C33.5944 22.7893 33.4609 22.8322 33.1474 22.5153C31.0069 20.3435 28.8339 18.2053 26.6771 16.0497C25.2482 14.6219 23.8285 13.186 22.4089 11.7489C22.15 11.4865 21.9736 11.3786 21.6404 11.7222C19.9874 13.4228 18.3101 15.099 16.6141 16.7566C16.281 17.0828 16.31 17.2499 16.6165 17.5552C20.244 21.163 23.8599 24.7824 27.4781 28.3994C27.5733 28.4946 27.6534 28.6026 27.7404 28.7059C26.6667 29.6624 25.5686 30.5829 24.3021 31.284C22.4495 32.309 20.4935 32.9776 18.3809 33.2655C16.2171 33.5604 14.0998 33.399 12.0115 32.8569C10.1786 32.381 8.47922 31.5812 6.92955 30.475C4.96431 29.0727 3.33919 27.357 2.15285 25.2502C0.323424 22.0023 -0.342874 18.5396 0.180647 14.8308C0.687918 11.2335 2.255 8.18291 4.79136 5.62914C6.48613 3.92276 8.48155 2.66561 10.7695 1.86234C12.686 1.18907 14.6489 0.810648 16.6675 0.890745C20.7524 1.05325 24.3416 2.48453 27.3585 5.27974C27.485 5.39698 27.622 5.50261 27.7544 5.61405L27.7555 5.61753Z" fill="#FF3C5A"/>
</svg>
